<svg xmlns="http://www.w3.org/2000/svg" viewBox="0 0 160.15 76.78"><defs><style>.cls-1{fill:#fefcfc;}.cls-2{fill:#cb0101;}</style></defs><title>Ativo 1</title><g id="Camada_2" data-name="Camada 2"><g id="Camada_1-2" data-name="Camada 1"><path class="cls-1" d="M80.07,76.88H.64c-.47,0-.58-.1-.58-.57Q.09,38.54.07.76C.07.26.13.11.69.11q79.46,0,158.92,0c.5,0,.61.1.61.61q0,37.78,0,75.55c0,.48-.06.62-.59.62Q119.84,76.86,80.07,76.88Zm37.35-35,.12,0,.29.46L133.3,67.9a17.6,17.6,0,0,0,4.27,4.92,14.56,14.56,0,0,0,12,3.1c5.85-1.1,9.44-5.68,10-11.55.1-1,.11-2.08.11-3.12q0-29.87,0-59.75c0-.61-.16-.75-.75-.74-2.62,0-5.25,0-7.87,0-.89,0-.78-.12-.78.81q0,29.47,0,58.94a13.34,13.34,0,0,1-.08,1.5A4.23,4.23,0,0,1,147,65.77a4.32,4.32,0,0,1-4.52-2.07c-10.28-16.48-20.61-32.93-30.81-49.47a3.4,3.4,0,0,0-.62-.78,1.81,1.81,0,0,0-3,.85,5.09,5.09,0,0,0-.13,1.55q0,22.41,0,44.81a6.35,6.35,0,0,1-.7,3.19,3.72,3.72,0,0,1-5.51,1.36A6,6,0,0,1,100,63.3C89.78,47,79.55,30.63,69.44,14.24a3.7,3.7,0,0,0-.65-.83,1.78,1.78,0,0,0-3,.81,5.07,5.07,0,0,0-.15,1.61q0,22.12,0,44.25c0,.19,0,.38,0,.56a5.06,5.06,0,0,1-5.28,5.13H38.25a32.27,32.27,0,0,1-8.1-1,25.67,25.67,0,0,1-16.83-12.8A28.64,28.64,0,0,1,10.4,32.17a26.86,26.86,0,0,1,6.94-13.73C22.5,13,29,10.53,36.33,10.28c4.72-.16,9.46-.05,14.19,0,.47,0,.58-.12.58-.59q0-4.16,0-8.31c0-.46-.1-.59-.58-.59-3.54,0-7.08,0-10.62,0A49.36,49.36,0,0,0,27.46,2.26c-8.81,2.35-16,7.07-21,14.81C.24,26.87-1.1,37.5,2.05,48.62a34.76,34.76,0,0,0,18.9,22.6,41.74,41.74,0,0,0,18.24,4.06c7.08.06,14.17,0,21.25,0A19.88,19.88,0,0,0,64.29,75a12.3,12.3,0,0,0,9.25-6.78,16.06,16.06,0,0,0,1.57-7.13c0-6.23,0-12.46,0-18.69q0-.31,0-.63a1.06,1.06,0,0,1,.37.4l5.69,9.39c3.33,5.5,6.62,11,10,16.48,3,4.83,7.2,7.83,13,8.08A11.78,11.78,0,0,0,115.63,70a15.15,15.15,0,0,0,1.78-7.76q0-9.84,0-19.69ZM96.1,35.74l-.11,0-.3-.52L81.06,10.07a20.68,20.68,0,0,0-6.58-7.23C68.87-.79,62-.11,57.6,4.57a13.93,13.93,0,0,0-3.77,10q0,18.37,0,36.75A2.49,2.49,0,0,1,51,54.08c-3.75,0-7.5,0-11.25,0a24.57,24.57,0,0,1-7-1A15.37,15.37,0,0,1,21.92,34.7,15.83,15.83,0,0,1,37.51,22c4.29-.1,8.58-.05,12.87,0,.63,0,.74-.18.73-.76,0-2.62,0-5.25,0-7.87,0-.63-.18-.73-.76-.72-4,0-8,0-12,0a32.65,32.65,0,0,0-6.28.51,22.75,22.75,0,0,0-14.47,8.71C12.24,29,11,37,13.28,45.55a22.72,22.72,0,0,0,10,13.75,25.7,25.7,0,0,0,13.65,4c7.89.12,15.79.06,23.68.06a2.63,2.63,0,0,0,2.54-1.86,4.23,4.23,0,0,0,.15-1.3q0-22.22,0-44.43A7.86,7.86,0,0,1,63.46,14a4.16,4.16,0,0,1,5-3.31A4.94,4.94,0,0,1,71.56,13q15.25,24.57,30.52,49.13a4.32,4.32,0,0,0,.6.79,1.54,1.54,0,0,0,2.73-.74,6.16,6.16,0,0,0,.15-1.61q0-22.4,0-44.81a7.93,7.93,0,0,1,.14-1.8,4.16,4.16,0,0,1,5.07-3.35,5.12,5.12,0,0,1,3.08,2.48L144.35,62.2A3.9,3.9,0,0,0,145,63a1.57,1.57,0,0,0,2.69-.68,5.06,5.06,0,0,0,.16-1.67q0-12,0-24,0-17.59,0-35.18c0-.62-.17-.74-.76-.74q-3.94.05-7.87,0c-.61,0-.79.11-.79.77q0,16.81,0,33.62v.64a1.75,1.75,0,0,1-.42-.53L123.32,10.05a19.92,19.92,0,0,0-7.66-7.86A12.92,12.92,0,0,0,99.45,5.06a13.91,13.91,0,0,0-3.34,9.38c0,4.92,0,9.83,0,14.75Q96.1,32.46,96.1,35.74Z" transform="translate(-0.07 -0.11)"/><path class="cls-2" d="M117.42,41.83v.68q0,9.84,0,19.69A15.15,15.15,0,0,1,115.63,70a11.78,11.78,0,0,1-11.44,6.18c-5.8-.25-10-3.25-13-8.08-3.37-5.47-6.67-11-10-16.48l-5.69-9.39a1.06,1.06,0,0,0-.37-.4q0,.31,0,.63c0,6.23,0,12.46,0,18.69a16.06,16.06,0,0,1-1.57,7.13A12.3,12.3,0,0,1,64.29,75a19.88,19.88,0,0,1-3.85.32c-7.08,0-14.17,0-21.25,0a41.74,41.74,0,0,1-18.24-4.06,34.76,34.76,0,0,1-18.9-22.6C-1.1,37.5.24,26.87,6.51,17.07c4.95-7.73,12.14-12.46,21-14.81A49.36,49.36,0,0,1,39.89.77c3.54,0,7.08,0,10.62,0,.47,0,.58.12.58.59q0,4.16,0,8.31c0,.46-.11.59-.58.59-4.73,0-9.46-.12-14.19,0-7.36.25-13.83,2.74-19,8.16A26.86,26.86,0,0,0,10.4,32.17a28.64,28.64,0,0,0,2.92,19.77,25.67,25.67,0,0,0,16.83,12.8,32.27,32.27,0,0,0,8.1,1H60.37a5.06,5.06,0,0,0,5.28-5.13c0-.19,0-.37,0-.56q0-22.12,0-44.25a5.07,5.07,0,0,1,.15-1.61,1.78,1.78,0,0,1,3-.81,3.7,3.7,0,0,1,.65.83C79.55,30.63,89.78,47,100,63.3a6,6,0,0,0,1.75,1.92,3.72,3.72,0,0,0,5.51-1.36,6.35,6.35,0,0,0,.7-3.19q0-22.41,0-44.81a5.09,5.09,0,0,1,.13-1.55,1.81,1.81,0,0,1,3-.85,3.4,3.4,0,0,1,.62.78c10.2,16.53,20.53,33,30.81,49.47A4.32,4.32,0,0,0,147,65.77,4.23,4.23,0,0,0,150.21,62a13.34,13.34,0,0,0,.08-1.5q0-29.47,0-58.94c0-.93-.11-.8.78-.81,2.62,0,5.25,0,7.87,0,.6,0,.75.13.75.74q0,29.87,0,59.75c0,1,0,2.08-.11,3.12-.57,5.88-4.15,10.46-10,11.55a14.56,14.56,0,0,1-12-3.1,17.6,17.6,0,0,1-4.27-4.92L117.83,42.26l-.29-.46Z" transform="translate(-0.07 -0.11)"/><path class="cls-2" d="M96.1,35.74q0-3.28,0-6.56c0-4.92,0-9.83,0-14.75a13.91,13.91,0,0,1,3.34-9.38A12.92,12.92,0,0,1,115.66,2.2a19.92,19.92,0,0,1,7.66,7.86L138,35.26a1.75,1.75,0,0,0,.42.53v-.64q0-16.81,0-33.62c0-.66.19-.77.79-.77q3.94.05,7.87,0c.59,0,.76.11.76.74q0,17.59,0,35.18,0,12,0,24a5.06,5.06,0,0,1-.16,1.67A1.57,1.57,0,0,1,145,63a3.9,3.9,0,0,1-.65-.83L113.86,13.12a5.12,5.12,0,0,0-3.08-2.48A4.16,4.16,0,0,0,105.71,14a7.93,7.93,0,0,0-.14,1.8q0,22.4,0,44.81a6.16,6.16,0,0,1-.15,1.61,1.54,1.54,0,0,1-2.73.74,4.32,4.32,0,0,1-.6-.79Q86.82,37.61,71.56,13a4.94,4.94,0,0,0-3.05-2.4,4.16,4.16,0,0,0-5,3.31,7.86,7.86,0,0,0-.15,1.86q0,22.22,0,44.43a4.23,4.23,0,0,1-.15,1.3,2.63,2.63,0,0,1-2.54,1.86c-7.9,0-15.79.06-23.68-.06a25.7,25.7,0,0,1-13.65-4,22.72,22.72,0,0,1-10-13.75C11,37,12.24,29,17.61,21.82a22.75,22.75,0,0,1,14.47-8.71,32.65,32.65,0,0,1,6.28-.51c4,0,8,0,12,0,.57,0,.77.09.76.72,0,2.62,0,5.25,0,7.87,0,.58-.1.76-.73.76-4.29,0-8.58-.07-12.87,0A15.83,15.83,0,0,0,21.92,34.7a15.37,15.37,0,0,0,10.9,18.42,24.57,24.57,0,0,0,7,1c3.75,0,7.5,0,11.25,0a2.49,2.49,0,0,0,2.8-2.81q0-18.37,0-36.75a13.93,13.93,0,0,1,3.77-10C62-.11,68.87-.79,74.49,2.84a20.68,20.68,0,0,1,6.58,7.23L95.68,35.27l.3.52Z" transform="translate(-0.07 -0.11)"/></g></g></svg>